<?xml version="1.0" encoding="utf-8" standalone="no"?>
<!DOCTYPE svg PUBLIC "-//W3C//DTD SVG 1.1//EN"
  "http://www.w3.org/Graphics/SVG/1.1/DTD/svg11.dtd">
<!-- Created with matplotlib (http://matplotlib.org/) -->
<svg height="345pt" version="1.1" viewBox="0 0 460 345" width="460pt" xmlns="http://www.w3.org/2000/svg" xmlns:xlink="http://www.w3.org/1999/xlink">
 <defs>
  <style type="text/css">
*{stroke-linecap:butt;stroke-linejoin:round;}
  </style>
 </defs>
 <g id="figure_1">
  <g id="patch_1">
   <path d="M 0 345.6 
L 460.8 345.6 
L 460.8 0 
L 0 0 
z
" style="fill:#ffffff;"/>
  </g>
  <g id="axes_1">
   <g id="patch_2">
    <path d="M 77.57 317.72 
L 383.23 317.72 
L 383.23 12.06 
L 77.57 12.06 
z
" style="fill:none;"/>
   </g>
   <g id="matplotlib.axis_1">
    <g id="xtick_1">
     <g id="line2d_1">
      <defs>
       <path d="M 0 0 
L 0 3.5 
" id="m7e61462d36" style="stroke:#555555;stroke-width:0.8;"/>
      </defs>
      <g>
       <use style="fill:#555555;stroke:#555555;stroke-width:0.8;" x="94.551111" xlink:href="#m7e61462d36" y="317.72"/>
      </g>
     </g>
     <g id="text_1">
      <!-- 1 -->
      <defs>
       <path d="M 12.40625 8.296875 
L 28.515625 8.296875 
L 28.515625 63.921875 
L 10.984375 60.40625 
L 10.984375 69.390625 
L 28.421875 72.90625 
L 38.28125 72.90625 
L 38.28125 8.296875 
L 54.390625 8.296875 
L 54.390625 0 
L 12.40625 0 
z
" id="DejaVuSans-31"/>
      </defs>
      <g style="fill:#555555;" transform="translate(91.369861 332.318437)scale(0.1 -0.1)">
       <use xlink:href="#DejaVuSans-31"/>
      </g>
     </g>
    </g>
    <g id="xtick_2">
     <g id="line2d_2">
      <g>
       <use style="fill:#555555;stroke:#555555;stroke-width:0.8;" x="128.513333" xlink:href="#m7e61462d36" y="317.72"/>
      </g>
     </g>
     <g id="text_2">
      <!-- 2 -->
      <defs>
       <path d="M 19.1875 8.296875 
L 53.609375 8.296875 
L 53.609375 0 
L 7.328125 0 
L 7.328125 8.296875 
Q 12.9375 14.109375 22.625 23.890625 
Q 32.328125 33.6875 34.8125 36.53125 
Q 39.546875 41.84375 41.421875 45.53125 
Q 43.3125 49.21875 43.3125 52.78125 
Q 43.3125 58.59375 39.234375 62.25 
Q 35.15625 65.921875 28.609375 65.921875 
Q 23.96875 65.921875 18.8125 64.3125 
Q 13.671875 62.703125 7.8125 59.421875 
L 7.8125 69.390625 
Q 13.765625 71.78125 18.9375 73 
Q 24.125 74.21875 28.421875 74.21875 
Q 39.75 74.21875 46.484375 68.546875 
Q 53.21875 62.890625 53.21875 53.421875 
Q 53.21875 48.921875 51.53125 44.890625 
Q 49.859375 40.875 45.40625 35.40625 
Q 44.1875 33.984375 37.640625 27.21875 
Q 31.109375 20.453125 19.1875 8.296875 
z
" id="DejaVuSans-32"/>
      </defs>
      <g style="fill:#555555;" transform="translate(125.332083 332.318437)scale(0.1 -0.1)">
       <use xlink:href="#DejaVuSans-32"/>
      </g>
     </g>
    </g>
    <g id="xtick_3">
     <g id="line2d_3">
      <g>
       <use style="fill:#555555;stroke:#555555;stroke-width:0.8;" x="162.475556" xlink:href="#m7e61462d36" y="317.72"/>
      </g>
     </g>
     <g id="text_3">
      <!-- 3 -->
      <defs>
       <path d="M 40.578125 39.3125 
Q 47.65625 37.796875 51.625 33 
Q 55.609375 28.21875 55.609375 21.1875 
Q 55.609375 10.40625 48.1875 4.484375 
Q 40.765625 -1.421875 27.09375 -1.421875 
Q 22.515625 -1.421875 17.65625 -0.515625 
Q 12.796875 0.390625 7.625 2.203125 
L 7.625 11.71875 
Q 11.71875 9.328125 16.59375 8.109375 
Q 21.484375 6.890625 26.8125 6.890625 
Q 36.078125 6.890625 40.9375 10.546875 
Q 45.796875 14.203125 45.796875 21.1875 
Q 45.796875 27.640625 41.28125 31.265625 
Q 36.765625 34.90625 28.71875 34.90625 
L 20.21875 34.90625 
L 20.21875 43.015625 
L 29.109375 43.015625 
Q 36.375 43.015625 40.234375 45.921875 
Q 44.09375 48.828125 44.09375 54.296875 
Q 44.09375 59.90625 40.109375 62.90625 
Q 36.140625 65.921875 28.71875 65.921875 
Q 24.65625 65.921875 20.015625 65.03125 
Q 15.375 64.15625 9.8125 62.3125 
L 9.8125 71.09375 
Q 15.4375 72.65625 20.34375 73.4375 
Q 25.25 74.21875 29.59375 74.21875 
Q 40.828125 74.21875 47.359375 69.109375 
Q 53.90625 64.015625 53.90625 55.328125 
Q 53.90625 49.265625 50.4375 45.09375 
Q 46.96875 40.921875 40.578125 39.3125 
z
" id="DejaVuSans-33"/>
      </defs>
      <g style="fill:#555555;" transform="translate(159.294306 332.318437)scale(0.1 -0.1)">
       <use xlink:href="#DejaVuSans-33"/>
      </g>
     </g>
    </g>
    <g id="xtick_4">
     <g id="line2d_4">
      <g>
       <use style="fill:#555555;stroke:#555555;stroke-width:0.8;" x="196.437778" xlink:href="#m7e61462d36" y="317.72"/>
      </g>
     </g>
     <g id="text_4">
      <!-- 4 -->
      <defs>
       <path d="M 37.796875 64.3125 
L 12.890625 25.390625 
L 37.796875 25.390625 
z
M 35.203125 72.90625 
L 47.609375 72.90625 
L 47.609375 25.390625 
L 58.015625 25.390625 
L 58.015625 17.1875 
L 47.609375 17.1875 
L 47.609375 0 
L 37.796875 0 
L 37.796875 17.1875 
L 4.890625 17.1875 
L 4.890625 26.703125 
z
" id="DejaVuSans-34"/>
      </defs>
      <g style="fill:#555555;" transform="translate(193.256528 332.318437)scale(0.1 -0.1)">
       <use xlink:href="#DejaVuSans-34"/>
      </g>
     </g>
    </g>
    <g id="xtick_5">
     <g id="line2d_5">
      <g>
       <use style="fill:#555555;stroke:#555555;stroke-width:0.8;" x="230.4" xlink:href="#m7e61462d36" y="317.72"/>
      </g>
     </g>
     <g id="text_5">
      <!-- 5 -->
      <defs>
       <path d="M 10.796875 72.90625 
L 49.515625 72.90625 
L 49.515625 64.59375 
L 19.828125 64.59375 
L 19.828125 46.734375 
Q 21.96875 47.46875 24.109375 47.828125 
Q 26.265625 48.1875 28.421875 48.1875 
Q 40.625 48.1875 47.75 41.5 
Q 54.890625 34.8125 54.890625 23.390625 
Q 54.890625 11.625 47.5625 5.09375 
Q 40.234375 -1.421875 26.90625 -1.421875 
Q 22.3125 -1.421875 17.546875 -0.640625 
Q 12.796875 0.140625 7.71875 1.703125 
L 7.71875 11.625 
Q 12.109375 9.234375 16.796875 8.0625 
Q 21.484375 6.890625 26.703125 6.890625 
Q 35.15625 6.890625 40.078125 11.328125 
Q 45.015625 15.765625 45.015625 23.390625 
Q 45.015625 31 40.078125 35.4375 
Q 35.15625 39.890625 26.703125 39.890625 
Q 22.75 39.890625 18.8125 39.015625 
Q 14.890625 38.140625 10.796875 36.28125 
z
" id="DejaVuSans-35"/>
      </defs>
      <g style="fill:#555555;" transform="translate(227.21875 332.318437)scale(0.1 -0.1)">
       <use xlink:href="#DejaVuSans-35"/>
      </g>
     </g>
    </g>
    <g id="xtick_6">
     <g id="line2d_6">
      <g>
       <use style="fill:#555555;stroke:#555555;stroke-width:0.8;" x="264.362222" xlink:href="#m7e61462d36" y="317.72"/>
      </g>
     </g>
     <g id="text_6">
      <!-- 6 -->
      <defs>
       <path d="M 33.015625 40.375 
Q 26.375 40.375 22.484375 35.828125 
Q 18.609375 31.296875 18.609375 23.390625 
Q 18.609375 15.53125 22.484375 10.953125 
Q 26.375 6.390625 33.015625 6.390625 
Q 39.65625 6.390625 43.53125 10.953125 
Q 47.40625 15.53125 47.40625 23.390625 
Q 47.40625 31.296875 43.53125 35.828125 
Q 39.65625 40.375 33.015625 40.375 
z
M 52.59375 71.296875 
L 52.59375 62.3125 
Q 48.875 64.0625 45.09375 64.984375 
Q 41.3125 65.921875 37.59375 65.921875 
Q 27.828125 65.921875 22.671875 59.328125 
Q 17.53125 52.734375 16.796875 39.40625 
Q 19.671875 43.65625 24.015625 45.921875 
Q 28.375 48.1875 33.59375 48.1875 
Q 44.578125 48.1875 50.953125 41.515625 
Q 57.328125 34.859375 57.328125 23.390625 
Q 57.328125 12.15625 50.6875 5.359375 
Q 44.046875 -1.421875 33.015625 -1.421875 
Q 20.359375 -1.421875 13.671875 8.265625 
Q 6.984375 17.96875 6.984375 36.375 
Q 6.984375 53.65625 15.1875 63.9375 
Q 23.390625 74.21875 37.203125 74.21875 
Q 40.921875 74.21875 44.703125 73.484375 
Q 48.484375 72.75 52.59375 71.296875 
z
" id="DejaVuSans-36"/>
      </defs>
      <g style="fill:#555555;" transform="translate(261.180972 332.318437)scale(0.1 -0.1)">
       <use xlink:href="#DejaVuSans-36"/>
      </g>
     </g>
    </g>
    <g id="xtick_7">
     <g id="line2d_7">
      <g>
       <use style="fill:#555555;stroke:#555555;stroke-width:0.8;" x="298.324444" xlink:href="#m7e61462d36" y="317.72"/>
      </g>
     </g>
     <g id="text_7">
      <!-- 7 -->
      <defs>
       <path d="M 8.203125 72.90625 
L 55.078125 72.90625 
L 55.078125 68.703125 
L 28.609375 0 
L 18.3125 0 
L 43.21875 64.59375 
L 8.203125 64.59375 
z
" id="DejaVuSans-37"/>
      </defs>
      <g style="fill:#555555;" transform="translate(295.143194 332.318437)scale(0.1 -0.1)">
       <use xlink:href="#DejaVuSans-37"/>
      </g>
     </g>
    </g>
    <g id="xtick_8">
     <g id="line2d_8">
      <g>
       <use style="fill:#555555;stroke:#555555;stroke-width:0.8;" x="332.286667" xlink:href="#m7e61462d36" y="317.72"/>
      </g>
     </g>
     <g id="text_8">
      <!-- 8 -->
      <defs>
       <path d="M 31.78125 34.625 
Q 24.75 34.625 20.71875 30.859375 
Q 16.703125 27.09375 16.703125 20.515625 
Q 16.703125 13.921875 20.71875 10.15625 
Q 24.75 6.390625 31.78125 6.390625 
Q 38.8125 6.390625 42.859375 10.171875 
Q 46.921875 13.96875 46.921875 20.515625 
Q 46.921875 27.09375 42.890625 30.859375 
Q 38.875 34.625 31.78125 34.625 
z
M 21.921875 38.8125 
Q 15.578125 40.375 12.03125 44.71875 
Q 8.5 49.078125 8.5 55.328125 
Q 8.5 64.0625 14.71875 69.140625 
Q 20.953125 74.21875 31.78125 74.21875 
Q 42.671875 74.21875 48.875 69.140625 
Q 55.078125 64.0625 55.078125 55.328125 
Q 55.078125 49.078125 51.53125 44.71875 
Q 48 40.375 41.703125 38.8125 
Q 48.828125 37.15625 52.796875 32.3125 
Q 56.78125 27.484375 56.78125 20.515625 
Q 56.78125 9.90625 50.3125 4.234375 
Q 43.84375 -1.421875 31.78125 -1.421875 
Q 19.734375 -1.421875 13.25 4.234375 
Q 6.78125 9.90625 6.78125 20.515625 
Q 6.78125 27.484375 10.78125 32.3125 
Q 14.796875 37.15625 21.921875 38.8125 
z
M 18.3125 54.390625 
Q 18.3125 48.734375 21.84375 45.5625 
Q 25.390625 42.390625 31.78125 42.390625 
Q 38.140625 42.390625 41.71875 45.5625 
Q 45.3125 48.734375 45.3125 54.390625 
Q 45.3125 60.0625 41.71875 63.234375 
Q 38.140625 66.40625 31.78125 66.40625 
Q 25.390625 66.40625 21.84375 63.234375 
Q 18.3125 60.0625 18.3125 54.390625 
z
" id="DejaVuSans-38"/>
      </defs>
      <g style="fill:#555555;" transform="translate(329.105417 332.318437)scale(0.1 -0.1)">
       <use xlink:href="#DejaVuSans-38"/>
      </g>
     </g>
    </g>
    <g id="xtick_9">
     <g id="line2d_9">
      <g>
       <use style="fill:#555555;stroke:#555555;stroke-width:0.8;" x="366.248889" xlink:href="#m7e61462d36" y="317.72"/>
      </g>
     </g>
     <g id="text_9">
      <!-- 9 -->
      <defs>
       <path d="M 10.984375 1.515625 
L 10.984375 10.5 
Q 14.703125 8.734375 18.5 7.8125 
Q 22.3125 6.890625 25.984375 6.890625 
Q 35.75 6.890625 40.890625 13.453125 
Q 46.046875 20.015625 46.78125 33.40625 
Q 43.953125 29.203125 39.59375 26.953125 
Q 35.25 24.703125 29.984375 24.703125 
Q 19.046875 24.703125 12.671875 31.3125 
Q 6.296875 37.9375 6.296875 49.421875 
Q 6.296875 60.640625 12.9375 67.421875 
Q 19.578125 74.21875 30.609375 74.21875 
Q 43.265625 74.21875 49.921875 64.515625 
Q 56.59375 54.828125 56.59375 36.375 
Q 56.59375 19.140625 48.40625 8.859375 
Q 40.234375 -1.421875 26.421875 -1.421875 
Q 22.703125 -1.421875 18.890625 -0.6875 
Q 15.09375 0.046875 10.984375 1.515625 
z
M 30.609375 32.421875 
Q 37.25 32.421875 41.125 36.953125 
Q 45.015625 41.5 45.015625 49.421875 
Q 45.015625 57.28125 41.125 61.84375 
Q 37.25 66.40625 30.609375 66.40625 
Q 23.96875 66.40625 20.09375 61.84375 
Q 16.21875 57.28125 16.21875 49.421875 
Q 16.21875 41.5 20.09375 36.953125 
Q 23.96875 32.421875 30.609375 32.421875 
z
" id="DejaVuSans-39"/>
      </defs>
      <g style="fill:#555555;" transform="translate(363.067639 332.318437)scale(0.1 -0.1)">
       <use xlink:href="#DejaVuSans-39"/>
      </g>
     </g>
    </g>
   </g>
   <g id="matplotlib.axis_2">
    <g id="ytick_1">
     <g id="line2d_10">
      <defs>
       <path d="M 0 0 
L -3.5 0 
" id="mc2bde3d0f7" style="stroke:#555555;stroke-width:0.8;"/>
      </defs>
      <g>
       <use style="fill:#555555;stroke:#555555;stroke-width:0.8;" x="77.57" xlink:href="#mc2bde3d0f7" y="29.041111"/>
      </g>
     </g>
     <g id="text_10">
      <!-- 1 -->
      <g style="fill:#555555;" transform="translate(64.2075 32.84033)scale(0.1 -0.1)">
       <use xlink:href="#DejaVuSans-31"/>
      </g>
     </g>
    </g>
    <g id="ytick_2">
     <g id="line2d_11">
      <g>
       <use style="fill:#555555;stroke:#555555;stroke-width:0.8;" x="77.57" xlink:href="#mc2bde3d0f7" y="63.003333"/>
      </g>
     </g>
     <g id="text_11">
      <!-- 2 -->
      <g style="fill:#555555;" transform="translate(64.2075 66.802552)scale(0.1 -0.1)">
       <use xlink:href="#DejaVuSans-32"/>
      </g>
     </g>
    </g>
    <g id="ytick_3">
     <g id="line2d_12">
      <g>
       <use style="fill:#555555;stroke:#555555;stroke-width:0.8;" x="77.57" xlink:href="#mc2bde3d0f7" y="96.965556"/>
      </g>
     </g>
     <g id="text_12">
      <!-- 3 -->
      <g style="fill:#555555;" transform="translate(64.2075 100.764774)scale(0.1 -0.1)">
       <use xlink:href="#DejaVuSans-33"/>
      </g>
     </g>
    </g>
    <g id="ytick_4">
     <g id="line2d_13">
      <g>
       <use style="fill:#555555;stroke:#555555;stroke-width:0.8;" x="77.57" xlink:href="#mc2bde3d0f7" y="130.927778"/>
      </g>
     </g>
     <g id="text_13">
      <!-- 4 -->
      <g style="fill:#555555;" transform="translate(64.2075 134.726997)scale(0.1 -0.1)">
       <use xlink:href="#DejaVuSans-34"/>
      </g>
     </g>
    </g>
    <g id="ytick_5">
     <g id="line2d_14">
      <g>
       <use style="fill:#555555;stroke:#555555;stroke-width:0.8;" x="77.57" xlink:href="#mc2bde3d0f7" y="164.89"/>
      </g>
     </g>
     <g id="text_14">
      <!-- 5 -->
      <g style="fill:#555555;" transform="translate(64.2075 168.689219)scale(0.1 -0.1)">
       <use xlink:href="#DejaVuSans-35"/>
      </g>
     </g>
    </g>
    <g id="ytick_6">
     <g id="line2d_15">
      <g>
       <use style="fill:#555555;stroke:#555555;stroke-width:0.8;" x="77.57" xlink:href="#mc2bde3d0f7" y="198.852222"/>
      </g>
     </g>
     <g id="text_15">
      <!-- 6 -->
      <g style="fill:#555555;" transform="translate(64.2075 202.651441)scale(0.1 -0.1)">
       <use xlink:href="#DejaVuSans-36"/>
      </g>
     </g>
    </g>
    <g id="ytick_7">
     <g id="line2d_16">
      <g>
       <use style="fill:#555555;stroke:#555555;stroke-width:0.8;" x="77.57" xlink:href="#mc2bde3d0f7" y="232.814444"/>
      </g>
     </g>
     <g id="text_16">
      <!-- 7 -->
      <g style="fill:#555555;" transform="translate(64.2075 236.613663)scale(0.1 -0.1)">
       <use xlink:href="#DejaVuSans-37"/>
      </g>
     </g>
    </g>
    <g id="ytick_8">
     <g id="line2d_17">
      <g>
       <use style="fill:#555555;stroke:#555555;stroke-width:0.8;" x="77.57" xlink:href="#mc2bde3d0f7" y="266.776667"/>
      </g>
     </g>
     <g id="text_17">
      <!-- 8 -->
      <g style="fill:#555555;" transform="translate(64.2075 270.575885)scale(0.1 -0.1)">
       <use xlink:href="#DejaVuSans-38"/>
      </g>
     </g>
    </g>
    <g id="ytick_9">
     <g id="line2d_18">
      <g>
       <use style="fill:#555555;stroke:#555555;stroke-width:0.8;" x="77.57" xlink:href="#mc2bde3d0f7" y="300.738889"/>
      </g>
     </g>
     <g id="text_18">
      <!-- 9 -->
      <g style="fill:#555555;" transform="translate(64.2075 304.538108)scale(0.1 -0.1)">
       <use xlink:href="#DejaVuSans-39"/>
      </g>
     </g>
    </g>
   </g>
   <g id="SquareCollection_1">
    <path clip-path="url(#p05f67b2dd7)" d="M 102.493299 36.983299 
L 86.608924 36.983299 
L 86.608924 21.098924 
L 102.493299 21.098924 
z
" style="fill:#348abd;stroke:#348abd;stroke-width:0.5;"/>
    <path clip-path="url(#p05f67b2dd7)" d="M 101.904148 70.35637 
L 87.198074 70.35637 
L 87.198074 55.650297 
L 101.904148 55.650297 
z
" style="fill:#348abd;stroke:#348abd;stroke-width:0.5;"/>
    <path clip-path="url(#p05f67b2dd7)" d="M 101.263485 103.677929 
L 87.838738 103.677929 
L 87.838738 90.253182 
L 101.263485 90.253182 
z
" style="fill:#348abd;stroke:#348abd;stroke-width:0.5;"/>
    <path clip-path="url(#p05f67b2dd7)" d="M 100.554841 136.931507 
L 88.547382 136.931507 
L 88.547382 124.924048 
L 100.554841 124.924048 
z
" style="fill:#348abd;stroke:#348abd;stroke-width:0.5;"/>
    <path clip-path="url(#p05f67b2dd7)" d="M 99.750493 170.089382 
L 89.351729 170.089382 
L 89.351729 159.690618 
L 99.750493 159.690618 
z
" style="fill:#348abd;stroke:#348abd;stroke-width:0.5;"/>
    <path clip-path="url(#p05f67b2dd7)" d="M 135.86637 36.394148 
L 121.160297 36.394148 
L 121.160297 21.688074 
L 135.86637 21.688074 
z
" style="fill:#348abd;stroke:#348abd;stroke-width:0.5;"/>
    <path clip-path="url(#p05f67b2dd7)" d="M 134.517063 69.007063 
L 122.509604 69.007063 
L 122.509604 56.999604 
L 134.517063 56.999604 
z
" style="fill:#348abd;stroke:#348abd;stroke-width:0.5;"/>
    <path clip-path="url(#p05f67b2dd7)" d="M 132.758611 101.210833 
L 124.268056 101.210833 
L 124.268056 92.720278 
L 132.758611 92.720278 
z
" style="fill:#348abd;stroke:#348abd;stroke-width:0.5;"/>
    <path clip-path="url(#p05f67b2dd7)" d="M 169.187929 35.753485 
L 155.763182 35.753485 
L 155.763182 22.328738 
L 169.187929 22.328738 
z
" style="fill:#348abd;stroke:#348abd;stroke-width:0.5;"/>
    <path clip-path="url(#p05f67b2dd7)" d="M 166.720833 67.248611 
L 158.230278 67.248611 
L 158.230278 58.758056 
L 166.720833 58.758056 
z
" style="fill:#348abd;stroke:#348abd;stroke-width:0.5;"/>
    <path clip-path="url(#p05f67b2dd7)" d="M 202.441507 35.044841 
L 190.434048 35.044841 
L 190.434048 23.037382 
L 202.441507 23.037382 
z
" style="fill:#348abd;stroke:#348abd;stroke-width:0.5;"/>
    <path clip-path="url(#p05f67b2dd7)" d="M 235.599382 34.240493 
L 225.200618 34.240493 
L 225.200618 23.841729 
L 235.599382 23.841729 
z
" style="fill:#348abd;stroke:#348abd;stroke-width:0.5;"/>
    <path clip-path="url(#p05f67b2dd7)" d="M 235.599382 305.938271 
L 225.200618 305.938271 
L 225.200618 295.539507 
L 235.599382 295.539507 
z
" style="fill:#348abd;stroke:#348abd;stroke-width:0.5;"/>
    <path clip-path="url(#p05f67b2dd7)" d="M 270.365952 306.742618 
L 258.358493 306.742618 
L 258.358493 294.735159 
L 270.365952 294.735159 
z
" style="fill:#348abd;stroke:#348abd;stroke-width:0.5;"/>
    <path clip-path="url(#p05f67b2dd7)" d="M 302.569722 271.021944 
L 294.079167 271.021944 
L 294.079167 262.531389 
L 302.569722 262.531389 
z
" style="fill:#348abd;stroke:#348abd;stroke-width:0.5;"/>
    <path clip-path="url(#p05f67b2dd7)" d="M 305.036818 307.451262 
L 291.612071 307.451262 
L 291.612071 294.026515 
L 305.036818 294.026515 
z
" style="fill:#348abd;stroke:#348abd;stroke-width:0.5;"/>
    <path clip-path="url(#p05f67b2dd7)" d="M 336.531944 237.059722 
L 328.041389 237.059722 
L 328.041389 228.569167 
L 336.531944 228.569167 
z
" style="fill:#348abd;stroke:#348abd;stroke-width:0.5;"/>
    <path clip-path="url(#p05f67b2dd7)" d="M 338.290396 272.780396 
L 326.282937 272.780396 
L 326.282937 260.772937 
L 338.290396 260.772937 
z
" style="fill:#348abd;stroke:#348abd;stroke-width:0.5;"/>
    <path clip-path="url(#p05f67b2dd7)" d="M 339.639703 308.091926 
L 324.93363 308.091926 
L 324.93363 293.385852 
L 339.639703 293.385852 
z
" style="fill:#348abd;stroke:#348abd;stroke-width:0.5;"/>
    <path clip-path="url(#p05f67b2dd7)" d="M 371.448271 170.089382 
L 361.049507 170.089382 
L 361.049507 159.690618 
L 371.448271 159.690618 
z
" style="fill:#348abd;stroke:#348abd;stroke-width:0.5;"/>
    <path clip-path="url(#p05f67b2dd7)" d="M 372.252618 204.855952 
L 360.245159 204.855952 
L 360.245159 192.848493 
L 372.252618 192.848493 
z
" style="fill:#348abd;stroke:#348abd;stroke-width:0.5;"/>
    <path clip-path="url(#p05f67b2dd7)" d="M 372.961262 239.526818 
L 359.536515 239.526818 
L 359.536515 226.102071 
L 372.961262 226.102071 
z
" style="fill:#348abd;stroke:#348abd;stroke-width:0.5;"/>
    <path clip-path="url(#p05f67b2dd7)" d="M 373.601926 274.129703 
L 358.895852 274.129703 
L 358.895852 259.42363 
L 373.601926 259.42363 
z
" style="fill:#348abd;stroke:#348abd;stroke-width:0.5;"/>
    <path clip-path="url(#p05f67b2dd7)" d="M 374.191076 308.681076 
L 358.306701 308.681076 
L 358.306701 292.796701 
L 374.191076 292.796701 
z
" style="fill:#348abd;stroke:#348abd;stroke-width:0.5;"/>
   </g>
   <g id="SquareCollection_2">
    <path clip-path="url(#p05f67b2dd7)" d="M 132.758611 169.135278 
L 124.268056 169.135278 
L 124.268056 160.644722 
L 132.758611 160.644722 
z
" style="fill:#e24a33;stroke:#e24a33;stroke-width:0.5;"/>
    <path clip-path="url(#p05f67b2dd7)" d="M 165.47742 99.96742 
L 159.473691 99.96742 
L 159.473691 93.963691 
L 165.47742 93.963691 
z
" style="fill:#e24a33;stroke:#e24a33;stroke-width:0.5;"/>
    <path clip-path="url(#p05f67b2dd7)" d="M 168.479285 136.931507 
L 156.471826 136.931507 
L 156.471826 124.924048 
L 168.479285 124.924048 
z
" style="fill:#e24a33;stroke:#e24a33;stroke-width:0.5;"/>
    <path clip-path="url(#p05f67b2dd7)" d="M 170.417743 172.832187 
L 154.533368 172.832187 
L 154.533368 156.947813 
L 170.417743 156.947813 
z
" style="fill:#e24a33;stroke:#e24a33;stroke-width:0.5;"/>
    <path clip-path="url(#p05f67b2dd7)" d="M 202.441507 102.969285 
L 190.434048 102.969285 
L 190.434048 90.961826 
L 202.441507 90.961826 
z
" style="fill:#e24a33;stroke:#e24a33;stroke-width:0.5;"/>
    <path clip-path="url(#p05f67b2dd7)" d="M 204.928333 139.418333 
L 187.947222 139.418333 
L 187.947222 122.437222 
L 204.928333 122.437222 
z
" style="fill:#e24a33;stroke:#e24a33;stroke-width:0.5;"/>
    <path clip-path="url(#p05f67b2dd7)" d="M 206.836542 175.288764 
L 186.039013 175.288764 
L 186.039013 154.491236 
L 206.836542 154.491236 
z
" style="fill:#e24a33;stroke:#e24a33;stroke-width:0.5;"/>
    <path clip-path="url(#p05f67b2dd7)" d="M 234.645278 67.248611 
L 226.154722 67.248611 
L 226.154722 58.758056 
L 234.645278 58.758056 
z
" style="fill:#e24a33;stroke:#e24a33;stroke-width:0.5;"/>
    <path clip-path="url(#p05f67b2dd7)" d="M 238.342187 104.907743 
L 222.457813 104.907743 
L 222.457813 89.023368 
L 238.342187 89.023368 
z
" style="fill:#e24a33;stroke:#e24a33;stroke-width:0.5;"/>
    <path clip-path="url(#p05f67b2dd7)" d="M 240.798764 141.326542 
L 220.001236 141.326542 
L 220.001236 120.529013 
L 240.798764 120.529013 
z
" style="fill:#e24a33;stroke:#e24a33;stroke-width:0.5;"/>
    <path clip-path="url(#p05f67b2dd7)" d="M 242.777005 177.267005 
L 218.022995 177.267005 
L 218.022995 152.512995 
L 242.777005 152.512995 
z
" style="fill:#e24a33;stroke:#e24a33;stroke-width:0.5;"/>
    <path clip-path="url(#p05f67b2dd7)" d="M 240.798764 209.250987 
L 220.001236 209.250987 
L 220.001236 188.453458 
L 240.798764 188.453458 
z
" style="fill:#e24a33;stroke:#e24a33;stroke-width:0.5;"/>
    <path clip-path="url(#p05f67b2dd7)" d="M 238.342187 240.756632 
L 222.457813 240.756632 
L 222.457813 224.872257 
L 238.342187 224.872257 
z
" style="fill:#e24a33;stroke:#e24a33;stroke-width:0.5;"/>
    <path clip-path="url(#p05f67b2dd7)" d="M 234.645278 271.021944 
L 226.154722 271.021944 
L 226.154722 262.531389 
L 234.645278 262.531389 
z
" style="fill:#e24a33;stroke:#e24a33;stroke-width:0.5;"/>
    <path clip-path="url(#p05f67b2dd7)" d="M 274.760987 175.288764 
L 253.963458 175.288764 
L 253.963458 154.491236 
L 274.760987 154.491236 
z
" style="fill:#e24a33;stroke:#e24a33;stroke-width:0.5;"/>
    <path clip-path="url(#p05f67b2dd7)" d="M 272.852778 207.342778 
L 255.871667 207.342778 
L 255.871667 190.361667 
L 272.852778 190.361667 
z
" style="fill:#e24a33;stroke:#e24a33;stroke-width:0.5;"/>
    <path clip-path="url(#p05f67b2dd7)" d="M 270.365952 238.818174 
L 258.358493 238.818174 
L 258.358493 226.810715 
L 270.365952 226.810715 
z
" style="fill:#e24a33;stroke:#e24a33;stroke-width:0.5;"/>
    <path clip-path="url(#p05f67b2dd7)" d="M 306.266632 172.832187 
L 290.382257 172.832187 
L 290.382257 156.947813 
L 306.266632 156.947813 
z
" style="fill:#e24a33;stroke:#e24a33;stroke-width:0.5;"/>
    <path clip-path="url(#p05f67b2dd7)" d="M 304.328174 204.855952 
L 292.320715 204.855952 
L 292.320715 192.848493 
L 304.328174 192.848493 
z
" style="fill:#e24a33;stroke:#e24a33;stroke-width:0.5;"/>
    <path clip-path="url(#p05f67b2dd7)" d="M 301.326309 235.816309 
L 295.32258 235.816309 
L 295.32258 229.81258 
L 301.326309 229.81258 
z
" style="fill:#e24a33;stroke:#e24a33;stroke-width:0.5;"/>
    <path clip-path="url(#p05f67b2dd7)" d="M 336.531944 169.135278 
L 328.041389 169.135278 
L 328.041389 160.644722 
L 336.531944 160.644722 
z
" style="fill:#e24a33;stroke:#e24a33;stroke-width:0.5;"/>
   </g>
   <g id="patch_3">
    <path d="M 77.57 317.72 
L 77.57 12.06 
" style="fill:none;stroke:#ffffff;stroke-linecap:square;stroke-linejoin:miter;"/>
   </g>
   <g id="patch_4">
    <path d="M 383.23 317.72 
L 383.23 12.06 
" style="fill:none;stroke:#ffffff;stroke-linecap:square;stroke-linejoin:miter;"/>
   </g>
   <g id="patch_5">
    <path d="M 77.57 317.72 
L 383.23 317.72 
" style="fill:none;stroke:#ffffff;stroke-linecap:square;stroke-linejoin:miter;"/>
   </g>
   <g id="patch_6">
    <path d="M 77.57 12.06 
L 383.23 12.06 
" style="fill:none;stroke:#ffffff;stroke-linecap:square;stroke-linejoin:miter;"/>
   </g>
  </g>
 </g>
 <defs>
  <clipPath id="p05f67b2dd7">
   <rect height="305.66" width="305.66" x="77.57" y="12.06"/>
  </clipPath>
 </defs>
</svg>
