<?xml version="1.0" encoding="utf-8" standalone="no"?>
<!DOCTYPE svg PUBLIC "-//W3C//DTD SVG 1.1//EN"
  "http://www.w3.org/Graphics/SVG/1.1/DTD/svg11.dtd">
<!-- Created with matplotlib (http://matplotlib.org/) -->
<svg height="345pt" version="1.1" viewBox="0 0 460 345" width="460pt" xmlns="http://www.w3.org/2000/svg" xmlns:xlink="http://www.w3.org/1999/xlink">
 <defs>
  <style type="text/css">
*{stroke-linecap:butt;stroke-linejoin:round;}
  </style>
 </defs>
 <g id="figure_1">
  <g id="patch_1">
   <path d="M 0 345.6 
L 460.8 345.6 
L 460.8 0 
L 0 0 
z
" style="fill:#ffffff;"/>
  </g>
  <g id="axes_1">
   <g id="patch_2">
    <path d="M 77.57 317.72 
L 383.23 317.72 
L 383.23 12.06 
L 77.57 12.06 
z
" style="fill:none;"/>
   </g>
   <g id="matplotlib.axis_1">
    <g id="xtick_1">
     <g id="line2d_1">
      <defs>
       <path d="M 0 0 
L 0 3.5 
" id="mec26a9626b" style="stroke:#555555;stroke-width:0.8;"/>
      </defs>
      <g>
       <use style="fill:#555555;stroke:#555555;stroke-width:0.8;" x="123.419" xlink:href="#mec26a9626b" y="317.72"/>
      </g>
     </g>
     <g id="text_1">
      <!-- 2 -->
      <defs>
       <path d="M 19.1875 8.296875 
L 53.609375 8.296875 
L 53.609375 0 
L 7.328125 0 
L 7.328125 8.296875 
Q 12.9375 14.109375 22.625 23.890625 
Q 32.328125 33.6875 34.8125 36.53125 
Q 39.546875 41.84375 41.421875 45.53125 
Q 43.3125 49.21875 43.3125 52.78125 
Q 43.3125 58.59375 39.234375 62.25 
Q 35.15625 65.921875 28.609375 65.921875 
Q 23.96875 65.921875 18.8125 64.3125 
Q 13.671875 62.703125 7.8125 59.421875 
L 7.8125 69.390625 
Q 13.765625 71.78125 18.9375 73 
Q 24.125 74.21875 28.421875 74.21875 
Q 39.75 74.21875 46.484375 68.546875 
Q 53.21875 62.890625 53.21875 53.421875 
Q 53.21875 48.921875 51.53125 44.890625 
Q 49.859375 40.875 45.40625 35.40625 
Q 44.1875 33.984375 37.640625 27.21875 
Q 31.109375 20.453125 19.1875 8.296875 
z
" id="DejaVuSans-32"/>
      </defs>
      <g style="fill:#555555;" transform="translate(120.23775 332.318437)scale(0.1 -0.1)">
       <use xlink:href="#DejaVuSans-32"/>
      </g>
     </g>
    </g>
    <g id="xtick_2">
     <g id="line2d_2">
      <g>
       <use style="fill:#555555;stroke:#555555;stroke-width:0.8;" x="184.551" xlink:href="#mec26a9626b" y="317.72"/>
      </g>
     </g>
     <g id="text_2">
      <!-- 4 -->
      <defs>
       <path d="M 37.796875 64.3125 
L 12.890625 25.390625 
L 37.796875 25.390625 
z
M 35.203125 72.90625 
L 47.609375 72.90625 
L 47.609375 25.390625 
L 58.015625 25.390625 
L 58.015625 17.1875 
L 47.609375 17.1875 
L 47.609375 0 
L 37.796875 0 
L 37.796875 17.1875 
L 4.890625 17.1875 
L 4.890625 26.703125 
z
" id="DejaVuSans-34"/>
      </defs>
      <g style="fill:#555555;" transform="translate(181.36975 332.318437)scale(0.1 -0.1)">
       <use xlink:href="#DejaVuSans-34"/>
      </g>
     </g>
    </g>
    <g id="xtick_3">
     <g id="line2d_3">
      <g>
       <use style="fill:#555555;stroke:#555555;stroke-width:0.8;" x="245.683" xlink:href="#mec26a9626b" y="317.72"/>
      </g>
     </g>
     <g id="text_3">
      <!-- 6 -->
      <defs>
       <path d="M 33.015625 40.375 
Q 26.375 40.375 22.484375 35.828125 
Q 18.609375 31.296875 18.609375 23.390625 
Q 18.609375 15.53125 22.484375 10.953125 
Q 26.375 6.390625 33.015625 6.390625 
Q 39.65625 6.390625 43.53125 10.953125 
Q 47.40625 15.53125 47.40625 23.390625 
Q 47.40625 31.296875 43.53125 35.828125 
Q 39.65625 40.375 33.015625 40.375 
z
M 52.59375 71.296875 
L 52.59375 62.3125 
Q 48.875 64.0625 45.09375 64.984375 
Q 41.3125 65.921875 37.59375 65.921875 
Q 27.828125 65.921875 22.671875 59.328125 
Q 17.53125 52.734375 16.796875 39.40625 
Q 19.671875 43.65625 24.015625 45.921875 
Q 28.375 48.1875 33.59375 48.1875 
Q 44.578125 48.1875 50.953125 41.515625 
Q 57.328125 34.859375 57.328125 23.390625 
Q 57.328125 12.15625 50.6875 5.359375 
Q 44.046875 -1.421875 33.015625 -1.421875 
Q 20.359375 -1.421875 13.671875 8.265625 
Q 6.984375 17.96875 6.984375 36.375 
Q 6.984375 53.65625 15.1875 63.9375 
Q 23.390625 74.21875 37.203125 74.21875 
Q 40.921875 74.21875 44.703125 73.484375 
Q 48.484375 72.75 52.59375 71.296875 
z
" id="DejaVuSans-36"/>
      </defs>
      <g style="fill:#555555;" transform="translate(242.50175 332.318437)scale(0.1 -0.1)">
       <use xlink:href="#DejaVuSans-36"/>
      </g>
     </g>
    </g>
    <g id="xtick_4">
     <g id="line2d_4">
      <g>
       <use style="fill:#555555;stroke:#555555;stroke-width:0.8;" x="306.815" xlink:href="#mec26a9626b" y="317.72"/>
      </g>
     </g>
     <g id="text_4">
      <!-- 8 -->
      <defs>
       <path d="M 31.78125 34.625 
Q 24.75 34.625 20.71875 30.859375 
Q 16.703125 27.09375 16.703125 20.515625 
Q 16.703125 13.921875 20.71875 10.15625 
Q 24.75 6.390625 31.78125 6.390625 
Q 38.8125 6.390625 42.859375 10.171875 
Q 46.921875 13.96875 46.921875 20.515625 
Q 46.921875 27.09375 42.890625 30.859375 
Q 38.875 34.625 31.78125 34.625 
z
M 21.921875 38.8125 
Q 15.578125 40.375 12.03125 44.71875 
Q 8.5 49.078125 8.5 55.328125 
Q 8.5 64.0625 14.71875 69.140625 
Q 20.953125 74.21875 31.78125 74.21875 
Q 42.671875 74.21875 48.875 69.140625 
Q 55.078125 64.0625 55.078125 55.328125 
Q 55.078125 49.078125 51.53125 44.71875 
Q 48 40.375 41.703125 38.8125 
Q 48.828125 37.15625 52.796875 32.3125 
Q 56.78125 27.484375 56.78125 20.515625 
Q 56.78125 9.90625 50.3125 4.234375 
Q 43.84375 -1.421875 31.78125 -1.421875 
Q 19.734375 -1.421875 13.25 4.234375 
Q 6.78125 9.90625 6.78125 20.515625 
Q 6.78125 27.484375 10.78125 32.3125 
Q 14.796875 37.15625 21.921875 38.8125 
z
M 18.3125 54.390625 
Q 18.3125 48.734375 21.84375 45.5625 
Q 25.390625 42.390625 31.78125 42.390625 
Q 38.140625 42.390625 41.71875 45.5625 
Q 45.3125 48.734375 45.3125 54.390625 
Q 45.3125 60.0625 41.71875 63.234375 
Q 38.140625 66.40625 31.78125 66.40625 
Q 25.390625 66.40625 21.84375 63.234375 
Q 18.3125 60.0625 18.3125 54.390625 
z
" id="DejaVuSans-38"/>
      </defs>
      <g style="fill:#555555;" transform="translate(303.63375 332.318437)scale(0.1 -0.1)">
       <use xlink:href="#DejaVuSans-38"/>
      </g>
     </g>
    </g>
    <g id="xtick_5">
     <g id="line2d_5">
      <g>
       <use style="fill:#555555;stroke:#555555;stroke-width:0.8;" x="367.947" xlink:href="#mec26a9626b" y="317.72"/>
      </g>
     </g>
     <g id="text_5">
      <!-- 10 -->
      <defs>
       <path d="M 12.40625 8.296875 
L 28.515625 8.296875 
L 28.515625 63.921875 
L 10.984375 60.40625 
L 10.984375 69.390625 
L 28.421875 72.90625 
L 38.28125 72.90625 
L 38.28125 8.296875 
L 54.390625 8.296875 
L 54.390625 0 
L 12.40625 0 
z
" id="DejaVuSans-31"/>
       <path d="M 31.78125 66.40625 
Q 24.171875 66.40625 20.328125 58.90625 
Q 16.5 51.421875 16.5 36.375 
Q 16.5 21.390625 20.328125 13.890625 
Q 24.171875 6.390625 31.78125 6.390625 
Q 39.453125 6.390625 43.28125 13.890625 
Q 47.125 21.390625 47.125 36.375 
Q 47.125 51.421875 43.28125 58.90625 
Q 39.453125 66.40625 31.78125 66.40625 
z
M 31.78125 74.21875 
Q 44.046875 74.21875 50.515625 64.515625 
Q 56.984375 54.828125 56.984375 36.375 
Q 56.984375 17.96875 50.515625 8.265625 
Q 44.046875 -1.421875 31.78125 -1.421875 
Q 19.53125 -1.421875 13.0625 8.265625 
Q 6.59375 17.96875 6.59375 36.375 
Q 6.59375 54.828125 13.0625 64.515625 
Q 19.53125 74.21875 31.78125 74.21875 
z
" id="DejaVuSans-30"/>
      </defs>
      <g style="fill:#555555;" transform="translate(361.5845 332.318437)scale(0.1 -0.1)">
       <use xlink:href="#DejaVuSans-31"/>
       <use x="63.623047" xlink:href="#DejaVuSans-30"/>
      </g>
     </g>
    </g>
   </g>
   <g id="matplotlib.axis_2">
    <g id="ytick_1">
     <g id="line2d_6">
      <defs>
       <path d="M 0 0 
L -3.5 0 
" id="m23964f99dc" style="stroke:#555555;stroke-width:0.8;"/>
      </defs>
      <g>
       <use style="fill:#555555;stroke:#555555;stroke-width:0.8;" x="77.57" xlink:href="#m23964f99dc" y="57.909"/>
      </g>
     </g>
     <g id="text_6">
      <!-- 2 -->
      <g style="fill:#555555;" transform="translate(64.2075 61.708219)scale(0.1 -0.1)">
       <use xlink:href="#DejaVuSans-32"/>
      </g>
     </g>
    </g>
    <g id="ytick_2">
     <g id="line2d_7">
      <g>
       <use style="fill:#555555;stroke:#555555;stroke-width:0.8;" x="77.57" xlink:href="#m23964f99dc" y="119.041"/>
      </g>
     </g>
     <g id="text_7">
      <!-- 4 -->
      <g style="fill:#555555;" transform="translate(64.2075 122.840219)scale(0.1 -0.1)">
       <use xlink:href="#DejaVuSans-34"/>
      </g>
     </g>
    </g>
    <g id="ytick_3">
     <g id="line2d_8">
      <g>
       <use style="fill:#555555;stroke:#555555;stroke-width:0.8;" x="77.57" xlink:href="#m23964f99dc" y="180.173"/>
      </g>
     </g>
     <g id="text_8">
      <!-- 6 -->
      <g style="fill:#555555;" transform="translate(64.2075 183.972219)scale(0.1 -0.1)">
       <use xlink:href="#DejaVuSans-36"/>
      </g>
     </g>
    </g>
    <g id="ytick_4">
     <g id="line2d_9">
      <g>
       <use style="fill:#555555;stroke:#555555;stroke-width:0.8;" x="77.57" xlink:href="#m23964f99dc" y="241.305"/>
      </g>
     </g>
     <g id="text_9">
      <!-- 8 -->
      <g style="fill:#555555;" transform="translate(64.2075 245.104219)scale(0.1 -0.1)">
       <use xlink:href="#DejaVuSans-38"/>
      </g>
     </g>
    </g>
    <g id="ytick_5">
     <g id="line2d_10">
      <g>
       <use style="fill:#555555;stroke:#555555;stroke-width:0.8;" x="77.57" xlink:href="#m23964f99dc" y="302.437"/>
      </g>
     </g>
     <g id="text_10">
      <!-- 10 -->
      <g style="fill:#555555;" transform="translate(57.845 306.236219)scale(0.1 -0.1)">
       <use xlink:href="#DejaVuSans-31"/>
       <use x="63.623047" xlink:href="#DejaVuSans-30"/>
      </g>
     </g>
    </g>
   </g>
   <g id="SquareCollection_1">
    <path clip-path="url(#pf006f72744)" d="M 100.4945 34.9845 
L 85.2115 34.9845 
L 85.2115 19.7015 
L 100.4945 19.7015 
z
" style="fill:#348abd;stroke:#348abd;stroke-width:0.5;"/>
    <path clip-path="url(#pf006f72744)" d="M 100.4945 96.1165 
L 85.2115 96.1165 
L 85.2115 80.8335 
L 100.4945 80.8335 
z
" style="fill:#348abd;stroke:#348abd;stroke-width:0.5;"/>
    <path clip-path="url(#pf006f72744)" d="M 100.4945 279.5125 
L 85.2115 279.5125 
L 85.2115 264.2295 
L 100.4945 264.2295 
z
" style="fill:#348abd;stroke:#348abd;stroke-width:0.5;"/>
    <path clip-path="url(#pf006f72744)" d="M 161.6265 34.9845 
L 146.3435 34.9845 
L 146.3435 19.7015 
L 161.6265 19.7015 
z
" style="fill:#348abd;stroke:#348abd;stroke-width:0.5;"/>
    <path clip-path="url(#pf006f72744)" d="M 192.1925 187.8145 
L 176.9095 187.8145 
L 176.9095 172.5315 
L 192.1925 172.5315 
z
" style="fill:#348abd;stroke:#348abd;stroke-width:0.5;"/>
    <path clip-path="url(#pf006f72744)" d="M 230.4 256.588 
L 199.834 256.588 
L 199.834 226.022 
L 230.4 226.022 
z
" style="fill:#348abd;stroke:#348abd;stroke-width:0.5;"/>
    <path clip-path="url(#pf006f72744)" d="M 253.3245 126.6825 
L 238.0415 126.6825 
L 238.0415 111.3995 
L 253.3245 111.3995 
z
" style="fill:#348abd;stroke:#348abd;stroke-width:0.5;"/>
    <path clip-path="url(#pf006f72744)" d="M 253.3245 248.9465 
L 238.0415 248.9465 
L 238.0415 233.6635 
L 253.3245 233.6635 
z
" style="fill:#348abd;stroke:#348abd;stroke-width:0.5;"/>
    <path clip-path="url(#pf006f72744)" d="M 291.532 317.72 
L 260.966 317.72 
L 260.966 287.154 
L 291.532 287.154 
z
" style="fill:#348abd;stroke:#348abd;stroke-width:0.5;"/>
    <path clip-path="url(#pf006f72744)" d="M 322.098 164.89 
L 291.532 164.89 
L 291.532 134.324 
L 322.098 134.324 
z
" style="fill:#348abd;stroke:#348abd;stroke-width:0.5;"/>
    <path clip-path="url(#pf006f72744)" d="M 314.4565 187.8145 
L 299.1735 187.8145 
L 299.1735 172.5315 
L 314.4565 172.5315 
z
" style="fill:#348abd;stroke:#348abd;stroke-width:0.5;"/>
    <path clip-path="url(#pf006f72744)" d="M 345.0225 34.9845 
L 329.7395 34.9845 
L 329.7395 19.7015 
L 345.0225 19.7015 
z
" style="fill:#348abd;stroke:#348abd;stroke-width:0.5;"/>
    <path clip-path="url(#pf006f72744)" d="M 345.0225 279.5125 
L 329.7395 279.5125 
L 329.7395 264.2295 
L 345.0225 264.2295 
z
" style="fill:#348abd;stroke:#348abd;stroke-width:0.5;"/>
    <path clip-path="url(#pf006f72744)" d="M 383.23 226.022 
L 352.664 226.022 
L 352.664 195.456 
L 383.23 195.456 
z
" style="fill:#348abd;stroke:#348abd;stroke-width:0.5;"/>
   </g>
   <g id="SquareCollection_2">
    <path clip-path="url(#pf006f72744)" d="M 103.659713 68.715713 
L 82.046287 68.715713 
L 82.046287 47.102287 
L 103.659713 47.102287 
z
" style="fill:#e24a33;stroke:#e24a33;stroke-width:0.5;"/>
    <path clip-path="url(#pf006f72744)" d="M 103.659713 129.847713 
L 82.046287 129.847713 
L 82.046287 108.234287 
L 103.659713 108.234287 
z
" style="fill:#e24a33;stroke:#e24a33;stroke-width:0.5;"/>
    <path clip-path="url(#pf006f72744)" d="M 103.659713 313.243713 
L 82.046287 313.243713 
L 82.046287 291.630287 
L 103.659713 291.630287 
z
" style="fill:#e24a33;stroke:#e24a33;stroke-width:0.5;"/>
    <path clip-path="url(#pf006f72744)" d="M 134.225713 38.149713 
L 112.612287 38.149713 
L 112.612287 16.536287 
L 134.225713 16.536287 
z
" style="fill:#e24a33;stroke:#e24a33;stroke-width:0.5;"/>
    <path clip-path="url(#pf006f72744)" d="M 131.0605 65.5505 
L 115.7775 65.5505 
L 115.7775 50.2675 
L 131.0605 50.2675 
z
" style="fill:#e24a33;stroke:#e24a33;stroke-width:0.5;"/>
    <path clip-path="url(#pf006f72744)" d="M 134.225713 99.281713 
L 112.612287 99.281713 
L 112.612287 77.668287 
L 134.225713 77.668287 
z
" style="fill:#e24a33;stroke:#e24a33;stroke-width:0.5;"/>
    <path clip-path="url(#pf006f72744)" d="M 131.0605 126.6825 
L 115.7775 126.6825 
L 115.7775 111.3995 
L 131.0605 111.3995 
z
" style="fill:#e24a33;stroke:#e24a33;stroke-width:0.5;"/>
    <path clip-path="url(#pf006f72744)" d="M 134.225713 282.677713 
L 112.612287 282.677713 
L 112.612287 261.064287 
L 134.225713 261.064287 
z
" style="fill:#e24a33;stroke:#e24a33;stroke-width:0.5;"/>
    <path clip-path="url(#pf006f72744)" d="M 131.0605 310.0785 
L 115.7775 310.0785 
L 115.7775 294.7955 
L 131.0605 294.7955 
z
" style="fill:#e24a33;stroke:#e24a33;stroke-width:0.5;"/>
    <path clip-path="url(#pf006f72744)" d="M 164.791713 68.715713 
L 143.178287 68.715713 
L 143.178287 47.102287 
L 164.791713 47.102287 
z
" style="fill:#e24a33;stroke:#e24a33;stroke-width:0.5;"/>
    <path clip-path="url(#pf006f72744)" d="M 195.357713 38.149713 
L 173.744287 38.149713 
L 173.744287 16.536287 
L 195.357713 16.536287 
z
" style="fill:#e24a33;stroke:#e24a33;stroke-width:0.5;"/>
    <path clip-path="url(#pf006f72744)" d="M 192.1925 65.5505 
L 176.9095 65.5505 
L 176.9095 50.2675 
L 192.1925 50.2675 
z
" style="fill:#e24a33;stroke:#e24a33;stroke-width:0.5;"/>
    <path clip-path="url(#pf006f72744)" d="M 195.357713 221.545713 
L 173.744287 221.545713 
L 173.744287 199.932287 
L 195.357713 199.932287 
z
" style="fill:#e24a33;stroke:#e24a33;stroke-width:0.5;"/>
    <path clip-path="url(#pf006f72744)" d="M 197.786466 254.540466 
L 171.315534 254.540466 
L 171.315534 228.069534 
L 197.786466 228.069534 
z
" style="fill:#e24a33;stroke:#e24a33;stroke-width:0.5;"/>
    <path clip-path="url(#pf006f72744)" d="M 225.923713 190.979713 
L 204.310287 190.979713 
L 204.310287 169.366287 
L 225.923713 169.366287 
z
" style="fill:#e24a33;stroke:#e24a33;stroke-width:0.5;"/>
    <path clip-path="url(#pf006f72744)" d="M 222.7585 218.3805 
L 207.4755 218.3805 
L 207.4755 203.0975 
L 222.7585 203.0975 
z
" style="fill:#e24a33;stroke:#e24a33;stroke-width:0.5;"/>
    <path clip-path="url(#pf006f72744)" d="M 256.489713 160.413713 
L 234.876287 160.413713 
L 234.876287 138.800287 
L 256.489713 138.800287 
z
" style="fill:#e24a33;stroke:#e24a33;stroke-width:0.5;"/>
    <path clip-path="url(#pf006f72744)" d="M 256.489713 282.677713 
L 234.876287 282.677713 
L 234.876287 261.064287 
L 256.489713 261.064287 
z
" style="fill:#e24a33;stroke:#e24a33;stroke-width:0.5;"/>
    <path clip-path="url(#pf006f72744)" d="M 258.918466 315.672466 
L 232.447534 315.672466 
L 232.447534 289.201534 
L 258.918466 289.201534 
z
" style="fill:#e24a33;stroke:#e24a33;stroke-width:0.5;"/>
    <path clip-path="url(#pf006f72744)" d="M 287.055713 129.847713 
L 265.442287 129.847713 
L 265.442287 108.234287 
L 287.055713 108.234287 
z
" style="fill:#e24a33;stroke:#e24a33;stroke-width:0.5;"/>
    <path clip-path="url(#pf006f72744)" d="M 283.8905 157.2485 
L 268.6075 157.2485 
L 268.6075 141.9655 
L 283.8905 141.9655 
z
" style="fill:#e24a33;stroke:#e24a33;stroke-width:0.5;"/>
    <path clip-path="url(#pf006f72744)" d="M 287.055713 252.111713 
L 265.442287 252.111713 
L 265.442287 230.498287 
L 287.055713 230.498287 
z
" style="fill:#e24a33;stroke:#e24a33;stroke-width:0.5;"/>
    <path clip-path="url(#pf006f72744)" d="M 283.8905 279.5125 
L 268.6075 279.5125 
L 268.6075 264.2295 
L 283.8905 264.2295 
z
" style="fill:#e24a33;stroke:#e24a33;stroke-width:0.5;"/>
    <path clip-path="url(#pf006f72744)" d="M 320.050466 132.276466 
L 293.579534 132.276466 
L 293.579534 105.805534 
L 320.050466 105.805534 
z
" style="fill:#e24a33;stroke:#e24a33;stroke-width:0.5;"/>
    <path clip-path="url(#pf006f72744)" d="M 317.621713 221.545713 
L 296.008287 221.545713 
L 296.008287 199.932287 
L 317.621713 199.932287 
z
" style="fill:#e24a33;stroke:#e24a33;stroke-width:0.5;"/>
    <path clip-path="url(#pf006f72744)" d="M 348.187713 68.715713 
L 326.574287 68.715713 
L 326.574287 47.102287 
L 348.187713 47.102287 
z
" style="fill:#e24a33;stroke:#e24a33;stroke-width:0.5;"/>
    <path clip-path="url(#pf006f72744)" d="M 348.187713 190.979713 
L 326.574287 190.979713 
L 326.574287 169.366287 
L 348.187713 169.366287 
z
" style="fill:#e24a33;stroke:#e24a33;stroke-width:0.5;"/>
    <path clip-path="url(#pf006f72744)" d="M 345.0225 218.3805 
L 329.7395 218.3805 
L 329.7395 203.0975 
L 345.0225 203.0975 
z
" style="fill:#e24a33;stroke:#e24a33;stroke-width:0.5;"/>
    <path clip-path="url(#pf006f72744)" d="M 348.187713 313.243713 
L 326.574287 313.243713 
L 326.574287 291.630287 
L 348.187713 291.630287 
z
" style="fill:#e24a33;stroke:#e24a33;stroke-width:0.5;"/>
    <path clip-path="url(#pf006f72744)" d="M 378.753713 38.149713 
L 357.140287 38.149713 
L 357.140287 16.536287 
L 378.753713 16.536287 
z
" style="fill:#e24a33;stroke:#e24a33;stroke-width:0.5;"/>
    <path clip-path="url(#pf006f72744)" d="M 375.5885 65.5505 
L 360.3055 65.5505 
L 360.3055 50.2675 
L 375.5885 50.2675 
z
" style="fill:#e24a33;stroke:#e24a33;stroke-width:0.5;"/>
    <path clip-path="url(#pf006f72744)" d="M 381.182466 193.408466 
L 354.711534 193.408466 
L 354.711534 166.937534 
L 381.182466 166.937534 
z
" style="fill:#e24a33;stroke:#e24a33;stroke-width:0.5;"/>
    <path clip-path="url(#pf006f72744)" d="M 378.753713 282.677713 
L 357.140287 282.677713 
L 357.140287 261.064287 
L 378.753713 261.064287 
z
" style="fill:#e24a33;stroke:#e24a33;stroke-width:0.5;"/>
    <path clip-path="url(#pf006f72744)" d="M 375.5885 310.0785 
L 360.3055 310.0785 
L 360.3055 294.7955 
L 375.5885 294.7955 
z
" style="fill:#e24a33;stroke:#e24a33;stroke-width:0.5;"/>
   </g>
   <g id="patch_3">
    <path d="M 77.57 317.72 
L 77.57 12.06 
" style="fill:none;stroke:#ffffff;stroke-linecap:square;stroke-linejoin:miter;"/>
   </g>
   <g id="patch_4">
    <path d="M 383.23 317.72 
L 383.23 12.06 
" style="fill:none;stroke:#ffffff;stroke-linecap:square;stroke-linejoin:miter;"/>
   </g>
   <g id="patch_5">
    <path d="M 77.57 317.72 
L 383.23 317.72 
" style="fill:none;stroke:#ffffff;stroke-linecap:square;stroke-linejoin:miter;"/>
   </g>
   <g id="patch_6">
    <path d="M 77.57 12.06 
L 383.23 12.06 
" style="fill:none;stroke:#ffffff;stroke-linecap:square;stroke-linejoin:miter;"/>
   </g>
  </g>
 </g>
 <defs>
  <clipPath id="pf006f72744">
   <rect height="305.66" width="305.66" x="77.57" y="12.06"/>
  </clipPath>
 </defs>
</svg>
